<?xml version="1.0"?>
<svg xmlns="http://www.w3.org/2000/svg" xmlns:xlink="http://www.w3.org/1999/xlink" xmlns:svgjs="http://svgjs.com/svgjs" version="1.1" width="512" height="512" x="0" y="0" viewBox="0 0 512 512" style="enable-background:new 0 0 512 512" xml:space="preserve" class=""><g><linearGradient xmlns="http://www.w3.org/2000/svg" id="SVGID_1_" gradientUnits="userSpaceOnUse" x1="67.975" x2="427.967" y1="387.655" y2="27.663"><stop stop-opacity="1" stop-color="#ffffff" offset="0"/><stop stop-opacity="1" stop-color="#ededff" offset="0.2617"/><stop stop-opacity="1" stop-color="#ffffff" offset="0.629"/></linearGradient><linearGradient xmlns="http://www.w3.org/2000/svg" id="SVGID_2_" gradientUnits="userSpaceOnUse" x1="256" x2="256" y1="464.761" y2="47.239"><stop offset="0" stop-color="#ff4d4d" stop-opacity=".4"/><stop offset=".1463" stop-color="#ff4d4d" stop-opacity=".342"/><stop offset="1" stop-color="#ff4d4d" stop-opacity="0"/></linearGradient><g xmlns="http://www.w3.org/2000/svg"><g><path d="m19.201 97.277c32.39-166.362 220.145-77.11 319.988-39.062 35.036 13.352 87.009 9.87 116.16 10.371 38.778.667 43.404 54.939 20.022 78.499-92.55 93.252 113.323 152.015-38.782 235.338-30.194 16.541-64.898 24.796-92.405 45.507-37.039 27.888-56.766 76.541-112.492 83.516-46.527 5.824-94.184-35.045-72.492-88.008 109.506-267.373-166.574-189.662-139.999-326.161z" fill="url(#SVGID_1_)" data-original="url(#SVGID_1_)"/></g><g><g><g><g><g><path d="m348.162 464.761h-184.324c-16.569 0-30-13.431-30-30v-357.522c0-16.569 13.431-30 30-30h184.324c16.569 0 30 13.431 30 30v357.523c0 16.568-13.431 29.999-30 29.999z" fill="#9393ff" data-original="#9393ff" class=""/><g><path d="m207.99 365.11-67.84 67.85c-1.74 1.73-4.02 2.6-6.29 2.61-.02-.27-.02-.54-.02-.81v-129.59l6.44-6.44c18.36-18.36 48.29-19.33 67.02-1.34 19.2 18.45 19.43 48.98.69 67.72z" fill="#8282ff" data-original="#8282ff" class=""/></g><path d="m358.16 78.85v357.52c0 5.52-4.48 10-10 10h-184.32c-5.52 0-10-4.48-10-10v-357.52c0-5.52 4.48-10 10-10h44.83c5.52 0 10 4.48 10 10v4.56c0 5.52 4.48 10 10 10h54.66c5.52 0 10-4.48 10-10v-4.56c0-5.52 4.48-10 10-10h44.83c5.52 0 10 4.48 10 10z" fill="#ffffff" data-original="#ffffff"/><g><path d="m192.624 90.416h-16.167c-2.761 0-5-2.239-5-5s2.239-5 5-5h16.167c2.761 0 5 2.239 5 5s-2.239 5-5 5z" fill="#9393ff" data-original="#9393ff" class=""/></g><g><circle cx="277.706" cy="73.85" fill="#ffffff" r="5" data-original="#ffffff"/></g><g><path d="m207.99 365.11-54.15 54.16v-130.12c17.43-8.29 38.85-5.79 53.46 8.24 19.2 18.45 19.43 48.98.69 67.72z" fill="#d8d8ff" data-original="#d8d8ff" class=""/></g></g><g><path d="m338.15 127.51v144.3c0 5.52-4.48 10-10 10h-144.3c-5.52 0-10-4.48-10-10v-144.3c0-5.52 4.48-10 10-10h144.3c5.52 0 10 4.48 10 10z" fill="#ffaa66" data-original="#ffaa66" class=""/><g fill="#ffc498"><path d="m246 182.66c0 12.7-10.3 23-23 23-1.29 0-2.56-.11-3.8-.32-.84 15.76-13.88 28.28-29.85 28.28-5.67 0-10.98-1.58-15.5-4.32v-51.14c4.52-2.75 9.83-4.33 15.5-4.33 4.11 0 8.03.83 11.59 2.34 2.8-9.54 11.62-16.51 22.06-16.51 12.7 0 23 10.3 23 23z" fill="#ffc498" data-original="#ffc498" class=""/><path d="m338.15 192.16v51.14c-4.52 2.74-9.83 4.32-15.5 4.32-15.97 0-29.01-12.52-29.85-28.28-1.24.21-2.51.32-3.8.32-12.7 0-23-10.3-23-23s10.3-23 23-23c10.44 0 19.26 6.97 22.06 16.51 3.56-1.51 7.48-2.34 11.59-2.34 5.67 0 10.98 1.58 15.5 4.33z" fill="#ffc498" data-original="#ffc498" class=""/></g><circle cx="256" cy="209.928" fill="#ff6c6c" r="43.992" data-original="#ff6c6c" class=""/><path d="m173.853 209.928v61.879c0 5.523 4.477 10 10 10h144.295c5.523 0 10-4.477 10-10v-61.879z" fill="#b2b2ff" data-original="#b2b2ff" class=""/><g fill="#d8d8ff"><path d="m299.18 232.619h-86.36c-2.761 0-5-2.239-5-5 0-2.761 2.239-5 5-5h86.36c2.761 0 5 2.239 5 5 0 2.762-2.238 5-5 5z" fill="#d8d8ff" data-original="#d8d8ff" class=""/><path d="m279.18 252.619h-46.36c-2.761 0-5-2.239-5-5 0-2.761 2.239-5 5-5h46.36c2.761 0 5 2.239 5 5 0 2.762-2.238 5-5 5z" fill="#d8d8ff" data-original="#d8d8ff" class=""/></g></g><g><g><path d="m192.355 296.426-.942.942-1.175-1.175c-3.061-3.061-8.025-3.061-11.086 0-3.061 3.061-3.061 8.025 0 11.086l10.497 10.496c.975.975 2.555.975 3.53 0l10.497-10.496c3.118-3.118 3.06-8.209-.173-11.254-3.127-2.942-8.112-2.634-11.148.401z" fill="#ff6c6c" data-original="#ff6c6c" class=""/></g><g fill="#9393ff"><path d="m331.832 319.449-7.919-4.324c-.669-.365-1.478-.365-2.147 0l-7.919 4.324c-1.492.815-3.313-.265-3.313-1.966v-22.565c0-1.237 1.003-2.24 2.24-2.24h20.131c1.237 0 2.24 1.003 2.24 2.24v22.565c0 1.701-1.821 2.781-3.313 1.966z" fill="#9393ff" data-original="#9393ff" class=""/><path d="m240.955 293.771h-18.71c-3.539 0-6.409 2.869-6.409 6.409v8.15c0 3.54 2.87 6.409 6.409 6.409h9.352l2.633 3.105c.894 1.055 2.522 1.055 3.416 0l2.633-3.105h.676c3.54 0 6.409-2.869 6.409-6.409v-8.15c-.001-3.54-2.87-6.409-6.409-6.409z" fill="#9393ff" data-original="#9393ff" class=""/></g></g><g><g><g><g><path d="m242.29 346.69c0 2.76-2.24 5-5 5h-52.58c-2.76 0-5-2.24-5-5s2.24-5 5-5h52.58c2.76 0 5 2.24 5 5z" fill="#00c2a4" data-original="#ff9c33" class=""/></g><g><path d="m220.78 341.69c-.73 3.42-1.86 6.78-3.37 10h-32.7c-2.76 0-5-2.24-5-5s2.24-5 5-5z" fill="#ff8a00" data-original="#ff8a00" class=""/></g><g><path d="m332.29 367.07c0 2.77-2.24 5-5 5h-142.58c-2.76 0-5-2.23-5-5 0-2.76 2.24-5 5-5h142.58c2.76 0 5 2.24 5 5z" fill="#6c6cff" data-original="#6c6cff" class=""/></g><g><path d="m184.71 362.07h26.07c-.88 1.05-1.81 2.06-2.79 3.04l-6.96 6.96h-16.32c-2.76 0-5-2.23-5-5 0-2.76 2.24-5 5-5z" fill="#4d4dff" data-original="#4d4dff" class=""/></g><g fill="#9393ff"><circle cx="327.292" cy="346.693" r="5" fill="#9393ff" data-original="#9393ff" class=""/><circle cx="311.528" cy="346.693" r="5" fill="#9393ff" data-original="#9393ff" class=""/></g></g></g><g><g><g><path d="m237.292 400.561h-52.583c-2.761 0-5-2.239-5-5s2.239-5 5-5h52.583c2.761 0 5 2.239 5 5s-2.239 5-5 5z" fill="#ff6c6c" data-original="#ff6c6c" class=""/></g><g><path d="m327.292 420.943h-142.584c-2.761 0-5-2.239-5-5s2.239-5 5-5h142.583c2.761 0 5 2.239 5 5s-2.238 5-4.999 5z" fill="#6c6cff" data-original="#6c6cff" class=""/></g><g fill="#9393ff"><circle cx="327.292" cy="395.561" r="5" fill="#9393ff" data-original="#9393ff" class=""/><circle cx="311.528" cy="395.561" r="5" fill="#9393ff" data-original="#9393ff" class=""/></g></g></g></g></g><g><path d="m348.162 464.761h-184.324c-16.569 0-30-13.431-30-30v-357.522c0-16.569 13.431-30 30-30h184.324c16.569 0 30 13.431 30 30v357.523c0 16.568-13.431 29.999-30 29.999z" fill="url(#SVGID_2_)" data-original="url(#SVGID_2_)"/><g><g><path d="m140.281 274.73-6.442 6.442-7.105-7.105c-18.515-18.515-48.533-18.515-67.047 0-18.515 18.515-18.515 48.533 0 67.047l67.844 67.844c3.484 3.484 9.132 3.484 12.616 0l67.844-67.844c18.743-18.743 18.512-49.277-.695-67.728-18.723-17.986-48.657-17.014-67.015 1.344z" fill="#ff6c6c" data-original="#ff6c6c" class=""/></g></g><g><g><path d="m170.818 318.969 9.738-7.243c2.191-1.63 2.646-4.727 1.016-6.918s-4.726-2.648-6.918-1.016l-11.665 8.676v-4.709c0-2.73-2.213-4.944-4.944-4.944s-4.944 2.214-4.944 4.944v29.732c0 2.73 2.213 4.944 4.944 4.944s4.944-2.214 4.944-4.944v-12.47l10.601 14.742c.967 1.344 2.481 2.058 4.018 2.058.999 0 2.01-.302 2.883-.93 2.217-1.594 2.722-4.684 1.128-6.901z" fill="#ffffff" data-original="#ffffff"/></g><g><g><g><path d="m108.235 342.435h-18.109c-2.122 0-4.012-1.339-4.716-3.341-.705-2.001-.068-4.23 1.586-5.559 5.042-4.049 12.846-11.451 14.406-15.228.6-1.451.505-3.051-.247-4.176-.585-.875-1.456-1.318-2.587-1.318-1.898 0-3.442 1.544-3.442 3.442 0 2.761-2.239 5-5 5s-5-2.239-5-5c0-7.412 6.03-13.442 13.442-13.442 4.479 0 8.452 2.099 10.899 5.76 2.623 3.923 3.063 8.99 1.176 13.555-1.353 3.274-4.397 6.997-7.593 10.307h5.184c2.761 0 5 2.239 5 5s-2.238 5-4.999 5z" fill="#ffffff" data-original="#ffffff"/></g></g><g><g><path d="m141.072 342.435h-18.108c-2.122 0-4.012-1.339-4.716-3.341-.705-2.001-.068-4.23 1.586-5.559 5.042-4.049 12.846-11.451 14.406-15.228.6-1.451.505-3.051-.247-4.176-.585-.875-1.456-1.318-2.587-1.318-1.898 0-3.442 1.544-3.442 3.442 0 2.761-2.239 5-5 5s-5-2.239-5-5c0-7.412 6.03-13.442 13.442-13.442 4.479 0 8.452 2.099 10.899 5.759 2.623 3.923 3.063 8.99 1.177 13.555-1.354 3.274-4.398 6.997-7.594 10.308h5.184c2.761 0 5 2.239 5 5s-2.239 5-5 5z" fill="#ffffff" data-original="#ffffff"/></g></g></g></g></g></g></g><path d="m82.843 175.993c-2.761 0-5-2.239-5-5 0-3.492-2.841-6.333-6.333-6.333-2.761 0-5-2.239-5-5s2.239-5 5-5c3.492 0 6.333-2.841 6.333-6.333 0-2.761 2.239-5 5-5s5 2.239 5 5c0 3.492 2.841 6.333 6.333 6.333 2.761 0 5 2.239 5 5s-2.239 5-5 5c-3.492 0-6.333 2.841-6.333 6.333 0 2.761-2.239 5-5 5z" fill="#ff6c6c" data-original="#ff6c6c" class=""/><path d="m400.829 48.096c-2.761 0-5-2.239-5-5 0-3.492-2.841-6.333-6.333-6.333-2.761 0-5-2.239-5-5s2.239-5 5-5c3.492 0 6.333-2.841 6.333-6.333 0-2.761 2.239-5 5-5s5 2.239 5 5c0 3.492 2.841 6.333 6.333 6.333 2.761 0 5 2.239 5 5s-2.239 5-5 5c-3.492 0-6.333 2.841-6.333 6.333 0 2.761-2.239 5-5 5z" fill="#00c2a4" data-original="#ff9c33" class=""/><path d="m419.864 398.403c-2.761 0-5-2.239-5-5 0-3.492-2.841-6.333-6.333-6.333-2.761 0-5-2.239-5-5s2.239-5 5-5c3.492 0 6.333-2.841 6.333-6.333 0-2.761 2.239-5 5-5s5 2.239 5 5c0 3.492 2.841 6.333 6.333 6.333 2.761 0 5 2.239 5 5s-2.239 5-5 5c-3.492 0-6.333 2.841-6.333 6.333 0 2.762-2.239 5-5 5z" fill="#8282ff" data-original="#8282ff" class=""/><path d="m415.663 445.193c-1.031 0-2.063-.318-2.939-.955l-3.859-2.804-3.859 2.804c-1.752 1.273-4.125 1.273-5.878 0-1.752-1.273-2.486-3.53-1.816-5.59l1.474-4.537-3.859-2.804c-1.752-1.273-2.486-3.53-1.816-5.59s2.589-3.455 4.755-3.455h4.771l1.474-4.537c.669-2.06 2.589-3.455 4.755-3.455s4.086 1.395 4.755 3.455l1.474 4.537h4.771c2.166 0 4.086 1.395 4.755 3.455s-.064 4.317-1.816 5.59l-3.859 2.804 1.474 4.537c.669 2.06-.064 4.317-1.816 5.59-.879.637-1.91.955-2.941.955z" fill="#00c2a4" data-original="#ff9c33" class=""/><path d="m105.979 225.39c-1.031 0-2.063-.318-2.939-.955l-3.859-2.804-3.859 2.804c-1.752 1.273-4.125 1.273-5.878 0-1.752-1.273-2.486-3.53-1.816-5.59l1.474-4.537-3.859-2.804c-1.752-1.273-2.486-3.53-1.816-5.59s2.589-3.455 4.755-3.455h4.771l1.474-4.537c.669-2.06 2.589-3.455 4.755-3.455s4.086 1.395 4.755 3.455l1.474 4.537h4.771c2.166 0 4.086 1.395 4.755 3.455s-.064 4.317-1.816 5.59l-3.859 2.804 1.474 4.537c.669 2.06-.064 4.317-1.816 5.59-.878.636-1.91.955-2.941.955z" fill="#8282ff" data-original="#8282ff" class=""/></g></g></g></svg>
